<svg fill="none" height="25" viewBox="0 0 96 25" width="96" xmlns="http://www.w3.org/2000/svg"><path d="m12.0916 24.1833c6.6781 0 12.0917-5.4136 12.0917-12.0917 0-6.67799-5.4136-12.0916-12.0917-12.0916-6.67799 0-12.0916 5.41361-12.0916 12.0916 0 6.6781 5.41361 12.0917 12.0916 12.0917z" fill="#0060ff"/><path d="m17.7074 14.1056c-.0084-.0137-.0198-.0252-.0334-.0337-.0135-.0085-.0288-.0139-.0448-.0155l-2.4725-.254c-.0201-.0019-.0403.002-.0583.0111-.0179.0092-.033.0232-.0433.0405-.3876.6632-.983 1.1802-1.6941 1.4709-.711.2907-1.4981.3389-2.2393.1371s-1.39529-.6422-1.86091-1.2532c-.46561-.611-.71684-1.3585-.71479-2.1267.00205-.7681.25727-1.5142.72615-2.12272.46888-.6085 1.12525-1.04547 1.86755-1.24327s1.5291-.1454 2.2386.1491c.7095.29449 1.3021.81465 1.6862 1.47999.0105.0183.0264.033.0455.0421.0192.0091.0406.0121.0615.0087l2.4226-.3861c.0155-.0026.0302-.0086.0431-.01769.0128-.00907.0235-.02091.0311-.03465.0077-.01355.0123-.02867.0134-.04422.0011-.01556-.0014-.03116-.0071-.04565-.5198-1.31593-1.484-2.4083-2.7252-3.08743-1.2412-.67914-2.681-.90217-4.0695-.63036-1.38851.27181-2.63798 1.02129-3.53148 2.11831-.8935 1.09703-1.37462 2.47229-1.35981 3.88709s.52461 2.7797 1.44088 3.8578 2.18115 1.8012 3.57501 2.0439c1.3939.2427 2.8288-.0104 4.0555-.7154s2.1678-1.8173 2.6599-3.1438c.0052-.0153.0068-.0316.0046-.0476-.0021-.016-.008-.0313-.0171-.0446z" fill="#fdfdfb"/><g fill="#333"><path d="m77.6081 6.00807c3.5518-.00781 6.2518 2.62183 6.2518 6.07983s-2.7055 6.0782-6.2619 6.0665c-3.5166-.0117-6.1173-2.5546-6.1431-6.0173-.0313-3.52596 2.5757-6.12121 6.1532-6.12903zm-4.0448 6.06103c-.0039 2.2983 1.7864 4.1957 3.9925 4.2325 2.26.0367 4.1808-1.8935 4.1879-4.209.007-2.31551-1.9029-4.25511-4.1645-4.23245-2.2053.02188-4.012 1.91616-4.0159 4.20895z"/><path d="m39.629 9.04578c-2.6147-1.78956-4.9701-1.78174-6.5322-.06564-1.3489 1.48476-1.359 3.90736-.0227 5.44366 1.552 1.7873 3.719 1.8123 6.3549-.0046.3907.411.7877.8385 1.1831 1.2605-2.1795 2.6241-6.2228 2.864-8.7563.5837-2.4226-2.1787-2.5734-6.2603-.3243-8.69381 2.3842-2.57884 6.6425-2.57884 9.294.09534z"/><path d="m68.5964 14.7479 1.094 1.377c-1.398 2.3866-5.9141 2.775-8.3929.7072-2.657-2.2194-2.9219-6.4268-.5142-8.92826.6016-.62251 1.3252-1.11414 2.1256-1.44416.8003-.33001 1.6602-.4913 2.5258-.47377.8655.01753 1.7181.2135 2.5045.57566.7863.36215 1.4894.88268 2.0654 1.52904l-1.209 1.30427c-2.5663-1.79738-4.974-1.78331-6.5471-.00469-1.3722 1.55201-1.3019 3.99801.1563 5.52031 1.6239 1.6918 3.7612 1.6817 6.1916-.1626z"/><path d="m54.1408 17.9423h-2.0647v-9.78087h-3.4384v-1.79034h8.9869v1.76768h-3.4838z"/><path d="m45.5353 17.9652h-1.8817v-11.61339h1.8817z"/><path d="m85.2268 6.26587v11.78533h2.0685v-8.33828h.1939l6.3134 8.33828h2.1975v-11.78533h-2.1115v8.44613h-.2368l-6.3565-8.44613z"/></g></svg>